<svg id="Layer_1" data-name="Layer 1" xmlns="http://www.w3.org/2000/svg" viewBox="0 0 256.4 122.48"><defs><style>.cls-1{fill:#231f20;}.cls-2{fill:#ed1651;}.cls-3{fill:#ffcb05;}</style></defs><title>logo</title><path class="cls-1" d="M728.78,409.32c-.19.09-.32.1-.41,0a4.67,4.67,0,0,0-.86-.51c-.41-.2-.62-.34-.62-.41l-4.19-53a8.28,8.28,0,0,1-1.52-.17,3.41,3.41,0,0,0-1.51-.05l-.83.47-1.27.74q-.66.4-1.26.8l-.83.53a1.66,1.66,0,0,1-1.4-1.51,1.12,1.12,0,0,1,0-.29.81.81,0,0,0,0-.29,11.19,11.19,0,0,1,1.6-1.69q1.29-1.2,2.64-2.52T720.8,349q1.06-1.13,1-1.36a2.47,2.47,0,0,0-1.74-2.23,6.6,6.6,0,0,0-2.87-.53,11.73,11.73,0,0,1,2.13-2.31,5,5,0,0,1,2.79-1.43,1.64,1.64,0,0,1,1.37.53,3.94,3.94,0,0,1,.87,1.43,14.8,14.8,0,0,1,.49,1.7,10.66,10.66,0,0,1,.21,1.2,4.64,4.64,0,0,1,1.26-.21,9.63,9.63,0,0,1,2.1.06,6.65,6.65,0,0,1,1.9.54,1.5,1.5,0,0,1,.92,1.32l5.52,69.85c0,.46-.37,1-1.21,1.54a4.85,4.85,0,0,1-2,.91,2.8,2.8,0,0,1-.94-.16,8.11,8.11,0,0,1-1.2-.48c-.4-.2-.76-.4-1.09-.61a.94.94,0,0,1-.51-.66l-.71-9a1.38,1.38,0,0,0-.41.15Z" transform="translate(-554 -323)"/><path class="cls-1" d="M735.74,402.83a3.57,3.57,0,0,1,1-.26,6.15,6.15,0,0,1,1.57.11,1.77,1.77,0,0,1,1.28.82,1.71,1.71,0,0,1-.49.33,1.88,1.88,0,0,0-.5.33l-.53.62q-.42.49-.54.5c-.37.18-.85,0-1.43-.52s-.89-.91-.9-1.15a.72.72,0,0,1,.52-.79Zm46.46,14.7h0a8.2,8.2,0,0,1,1.27-.8,10.17,10.17,0,0,1,1.28-.57.75.75,0,0,0,.58-.8,2.31,2.31,0,0,0-.23-.67c-.14-.3-.29-.44-.44-.43l-3.8.3c-.17-.21-.45-.52-.82-.91s-.78-.77-1.19-1.12a13.38,13.38,0,0,1-1.13-1.07,1.75,1.75,0,0,1-.52-.77.67.67,0,0,1,.58-.74,6.48,6.48,0,0,1,1.08-.2,2.39,2.39,0,0,1,1.59.39,2.21,2.21,0,0,0,1.48.4,5.22,5.22,0,0,0-.3-1.54,1.55,1.55,0,0,0-.64-.76,2.57,2.57,0,0,0-1.12-.32,12.05,12.05,0,0,1-1.77-.32c-.16-.07-.63-.2-1.42-.41s-1.27-.34-1.43-.41l-.23,0-.34,0a18.49,18.49,0,0,1-4.74,7.49,12.74,12.74,0,0,1-8.07,3.47,12.06,12.06,0,0,1-4.8-.6,15.63,15.63,0,0,1-4.41-2.31,16.63,16.63,0,0,1-3.53-3.6,13.93,13.93,0,0,1-2.14-4.46,20.7,20.7,0,0,1-.53-3,5,5,0,0,0-1.33-3l1.12,14.25a9.76,9.76,0,0,1-2.06-3.36,19.12,19.12,0,0,1-.94-3.86,34.35,34.35,0,0,1-.32-4q0-2-.2-4l-1.27.1.18,2.3a3.07,3.07,0,0,1-1.32-.59,8.79,8.79,0,0,1-1.37-1.22,9.63,9.63,0,0,1-1.1-1.48,3.16,3.16,0,0,1-.51-1.35c0-.61.13-1,.55-1.08a8.37,8.37,0,0,1,1.43-.23,11.59,11.59,0,0,1,1.85,0,3.88,3.88,0,0,1,1.8.9l1.49-4.63.36,4.48.88-.65c0-.08,0-.5,0-1.27s0-1.7,0-2.78,0-1.92-.08-2.54l-.14-1.72,11.73-40.72a8.1,8.1,0,0,1,1.34-2.83,3.63,3.63,0,0,1,2.74-1.31q2.31-.18,2.51,2.35l.05.69-7.43,26,.07.81a3.55,3.55,0,0,0,2,3q6.68-.3,10.1,1.92a12.28,12.28,0,0,1,4.88,6.1,28.42,28.42,0,0,1,1.64,9.07q.18,5.2.51,10.84c.23,0,.77,0,1.62,0a4.65,4.65,0,0,1,1.64.28,3.4,3.4,0,0,1,1.14.43,3.32,3.32,0,0,0,1.13.43,22,22,0,0,0,3.72.11,14.89,14.89,0,0,1,3.6.24,5.92,5.92,0,0,1,2.83,1.4,5.25,5.25,0,0,1,1.38,3.6,3.85,3.85,0,0,1-1.75-.21,3.55,3.55,0,0,0-1.64-.22,1.38,1.38,0,0,0-1.1.72,2.22,2.22,0,0,0-.35,1.36,14,14,0,0,0,.57,2.85,22.53,22.53,0,0,0,1,2.81l0,.23c0,.16-.26.44-.8.87s-1.18.9-1.91,1.43l-2.13,1.5a7.56,7.56,0,0,1-1.5.87,1.75,1.75,0,0,1-1.17-1.59c-.15-.88-.25-1.62-.29-2.24a1.45,1.45,0,0,1,.52-1.37ZM745,391.28h0c0,.08-.06.16-.21.25s-.23,0-.25-.21,0-.43.2-.36a.35.35,0,0,1,.25.33Zm8.83,16.1h0a3.17,3.17,0,0,0,1,2.18,6,6,0,0,0,2.06,1.22,8.58,8.58,0,0,0,2.46.5,16.49,16.49,0,0,0,2.19,0c.38,0,.88-.09,1.49-.17l1-.14a4,4,0,0,0,1-.25q.62-.22.61-.34l-.53-6.67-1.06-.26c-.47-.12-1-.23-1.53-.34s-1.06-.22-1.53-.34a8,8,0,0,1-.95-.27c-.07,0-.18-.06-.31-.21a4,4,0,0,0-.31-.32l0-.23c0-.54.13-.84.51-.91a11.49,11.49,0,0,1,1.14-.15,3.09,3.09,0,0,1,2,.48,2.9,2.9,0,0,0,1.89.49l-1-12.19a4.61,4.61,0,0,1,2,2.38,21.94,21.94,0,0,1,1.16,3.61,34.4,34.4,0,0,1,.66,3.88,19.33,19.33,0,0,0,.53,3.08L767,385.85a3.7,3.7,0,0,0-.94-2.36,5.67,5.67,0,0,0-2-1.34,8.89,8.89,0,0,0-2.48-.62,13.53,13.53,0,0,0-2.42,0,11,11,0,0,0-3.81.82,8.14,8.14,0,0,0-2.81,3.06l5.57.37-6,.47,1,12.88a.74.74,0,0,0,.75.75,9.38,9.38,0,0,0,1.51,0,6.22,6.22,0,0,1,1.51.05.82.82,0,0,1,.76.81.71.71,0,0,1-.51.85,5.39,5.39,0,0,1-1,.2c-.62,0-1.1.07-1.44.06a3.72,3.72,0,0,1-1.36-.41l.47,6Zm7,13.31h0L759,421.81a5.12,5.12,0,0,1-2.14.8,4.45,4.45,0,0,1-2.06-.41q-1.13-.49-2.09-.88l8.17-.65Zm-1.34-34.49h0a.2.2,0,0,1-.24-.21c-.09-.15,0-.23.21-.25s.35.05.36.2a.36.36,0,0,1-.33.26Zm2.48.61h0c0,.39-.11.59-.41.61s-.48-.15-.51-.54.11-.59.42-.61.47.16.5.54Zm.51.54h0c0,.38-.07.58-.3.6s-.47-.16-.5-.54.1-.59.41-.61.36.16.39.55Zm.62.53h0c0,.39-.11.59-.42.61s-.36-.16-.39-.55.07-.58.3-.6.47.16.51.54Zm.62.53h0a.41.41,0,0,1-.42.49.41.41,0,0,1-.5-.42c0-.38.1-.59.41-.61s.48.16.51.54Zm4.39,19h0a9.19,9.19,0,0,0,.27-.89,3,3,0,0,0,.16-.88c0-.08-.09-.17-.25-.27a.73.73,0,0,0-.36-.15l.17,2.19Z" transform="translate(-554 -323)"/><path class="cls-1" d="M803.58,352c0-.07,0-.31,0-.69s0-.66,0-.81c0-.46-.09-1-.18-1.49a2.1,2.1,0,0,0-.74-1.33l-1,.54c0-.08,0-.34-.06-.8s-.26-.79-.64-.76l-11.5.91a1.76,1.76,0,0,0-1.85,1.48,20.43,20.43,0,0,0-.29,2.92,15.8,15.8,0,0,1-.35,2.92c-.2.91-.91,1.41-2.14,1.5a2.75,2.75,0,0,1-2.56-1.65q-.05-.69-.3-2.29c-.16-1.07-.33-2.21-.5-3.44s-.32-2.36-.45-3.44-.2-1.84-.24-2.3l-.26-3.33-.26-3.22a7.63,7.63,0,0,1,1.32-1.61,3,3,0,0,1,1.85-.84l17.6-1.39a3.6,3.6,0,0,1,2.31.68,2.52,2.52,0,0,1,1.25,1.92,4.2,4.2,0,0,1-.21,1.75,4.23,4.23,0,0,0-.21,1.75l0,.23c.31.05.78.11,1.4.18a11.23,11.23,0,0,1,1.89.37,8.18,8.18,0,0,1,1.67.68,1.36,1.36,0,0,1,.78,1.09l.47,6L797.71,411q-.66,3.41-3.65,3.65a4.17,4.17,0,0,1-1.77-.5c-.8-.36-1.15-.85-1-1.48L803.58,352Zm-1.48-13.59h0a5.37,5.37,0,0,0-.46-1.47,4.94,4.94,0,0,0-.85-1.26,1.54,1.54,0,0,0-1.31-.47L783.6,336.5a1.71,1.71,0,0,0-1.23.56,2.88,2.88,0,0,0-.6,1.2,6,6,0,0,0-.18,1.4c0,.47,0,.85,0,1.16,0,.15,0,.46.07.92a2.42,2.42,0,0,0,.19.91l2.54-1.59,17.83-1.41c0-.31-.08-.71-.15-1.2Zm-1.2,14.84h0l.09,1.15L791.86,400l-1.26,3.11,10.3-49.77Zm.9-3.31h0l0,.58a6.39,6.39,0,0,0-.22.83,6,6,0,0,1-.22.83l0-.58,0-.58a2.66,2.66,0,0,1,.16-.82c.12-.39.22-.67.28-.83l0,.57Z" transform="translate(-554 -323)"/><path class="cls-1" d="M615.06,413.85a7.87,7.87,0,0,1,0,2.25c.1.44,0,.69-.38.77-.61.14-1,.11-1.18-.08a1.69,1.69,0,0,1-.38-.81,1.36,1.36,0,0,1,.11-1.05,1.37,1.37,0,0,0,.11-1.05,19.3,19.3,0,0,0-1.48-4.18,41,41,0,0,1-1.77-4.26c-.05-.26-.17-.67-.34-1.22s-.37-1.16-.6-1.79-.43-1.23-.6-1.78-.28-1-.34-1.23a1,1,0,0,1-.88-.55,6.25,6.25,0,0,1-.26-.84,6.6,6.6,0,0,1-.15-1c0-.31.17-.56.59-.75l-1-7a6.84,6.84,0,0,1-1.39-.38,1.35,1.35,0,0,1-.85-1c-.18-.78,0-1.21.47-1.27s.8-.43.92-1.09a2.25,2.25,0,0,0,.18-.73c.05-.38.1-.78.14-1.2s.09-.84.13-1.26a3.69,3.69,0,0,0,0-.77q.07-.29.44-1.4a7.8,7.8,0,0,1,.58-1.43l2.61,11.77a49.44,49.44,0,0,1,0-6.73,16.81,16.81,0,0,1,1.07-4.76,19.94,19.94,0,0,1,2.35-4.23q1.52-2.12,4-5.14l-5,1.1a2.35,2.35,0,0,1,1.37-2.16,9.31,9.31,0,0,1,2.45-1l.66-.15a93.74,93.74,0,0,1,10.4.84,20.77,20.77,0,0,1,7.8,2.66,16,16,0,0,1,5.55,5.83A37,37,0,0,1,644.16,387c.09.44.25,1.25.47,2.43s.37,2,.44,2.3a3.09,3.09,0,0,1,0,1.11c-.08.47-.18,1-.3,1.44a5.5,5.5,0,0,1-.52,1.35,1.27,1.27,0,0,1-.73.71l-20,4.44a11.67,11.67,0,0,0-1,1.18c-.2.32-.42.69-.65,1.1a1.64,1.64,0,0,0-.23,1.14l2.64,11.88a25.44,25.44,0,0,1,1.86,2.19c.13.15.28.32.46.51s.31.27.4.25l5.62-1.25-1.61,2,3.14-.7a8.13,8.13,0,0,0,3.92-1.83,16.21,16.21,0,0,0,2.18-2.54l1.65-2.43a4.41,4.41,0,0,1,4.62-1.43,2,2,0,0,1,1.26,1.64,5,5,0,0,1-.18,2.58,14.92,14.92,0,0,1-1.18,2.72c-.49.88-1,1.73-1.56,2.53a14.92,14.92,0,0,1-1.5,1.91,12,12,0,0,1-3.79,3,20.51,20.51,0,0,1-4.52,1.55,14.26,14.26,0,0,1-7.23-.11,15.39,15.39,0,0,1-5.86-3.21,20.74,20.74,0,0,1-4.35-5.4,31.91,31.91,0,0,1-2.81-6.49q.12.53.28,2.19Zm-.31,6.32h0a3.25,3.25,0,0,1,1.12-.52l.52,2.35a3.18,3.18,0,0,1-1.23,0,1,1,0,0,1-.41-1.83Zm2.28,4.71h0l-.38.77c-.56-.05-.93-.48-1.11-1.26a1.38,1.38,0,0,1,1.48.49Zm-1.51-6.8h0c-.08.48-.42.78-1,.91l-.14-.65,1.18-.26Zm6.13-41.9h0a10.27,10.27,0,0,0-2.64,1.41,7,7,0,0,0-1.87,2.06,3.66,3.66,0,0,0-.35,2.75l2.21,9.94a13.24,13.24,0,0,0,1.63-1.94q1.16-1.56,1.47-2c.29-.34.83-1,1.62-2s1.65-2.06,2.58-3.18l2.55-3q1.14-1.35,1.53-1.44a7,7,0,0,1-.11-.8,7.22,7.22,0,0,0-.11-.8,3.74,3.74,0,0,0-.74-1.76,2.94,2.94,0,0,0-1.83-.55,6.71,6.71,0,0,0-1.73.24l-1.7.38a20.44,20.44,0,0,0-2.51.76Zm-2.53,9.27h0a.24.24,0,0,1-.2.32q-.23.19-.32-.2c-.06-.26,0-.37.21-.32a.23.23,0,0,1,.32.2Zm3.21,10.13h0c.1-.39.22-.85.37-1.38a1.2,1.2,0,0,1,.89-1l.26-.06a6.34,6.34,0,0,1,.55.91,5,5,0,0,1,.41.94l4.57-1a1.67,1.67,0,0,1,.28-1.5,6.25,6.25,0,0,1,1.2-1.09,7.84,7.84,0,0,0,1.26-1.1,2.09,2.09,0,0,0,.45-1.68q-.06-.26-.18-1.12c-.08-.57-.17-1.19-.27-1.86s-.21-1.26-.33-1.78l-.26-1.18a4.72,4.72,0,0,0-1.19.81q-.93.75-1.95,1.74l-1.92,1.87a14.12,14.12,0,0,0-2.05,2.51l-1.32,2.07-1.32,2.08a9.54,9.54,0,0,0-.79,1.41l1.32.39Zm-1.8-8.11h0l.12.53-.52.11-.12-.52.52-.12Zm14.24,2.05h0c-.56.58-1.13,1.11-1.7,1.61l-1.49,1.29a1.2,1.2,0,0,0-.49,1.2l1.57-.35a4.88,4.88,0,0,0,2.81-1.58,3.5,3.5,0,0,0,.53-3.14,5.32,5.32,0,0,0-.19-.58,6,6,0,0,1-.2-.57,2.94,2.94,0,0,1-.83,2.11Zm-1.12-10h0a7.48,7.48,0,0,0,.44,2c.11.3.2.39.27.28a2.11,2.11,0,0,0,0-1.36c-.16-.7-.34-1.12-.55-1.25s-.15.06-.12.37ZM631.4,367h0c.09-.2.18-.31.27-.33l.26-.06.39-.09c.09,0,.21,0,.38.19a.82.82,0,0,1,.28.35.54.54,0,0,1-.12.37l-.26.4-.39.09-.26.05-.8-.51a3.42,3.42,0,0,0,.24-.46Zm-.13-17.27h0a5.92,5.92,0,0,1,.84-.26,3,3,0,0,1,1.09,0,.82.82,0,0,1,.71.73l.06.26c-.12,1.13-.22,2.29-.32,3.5a31.27,31.27,0,0,0-.11,3.18,7.37,7.37,0,0,0,.23,2.55,8.14,8.14,0,0,1,.33,2.12,2.5,2.5,0,0,1-.53,1.63,3.72,3.72,0,0,1-2.11,1,21.29,21.29,0,0,1-.45-7,23.54,23.54,0,0,0-.29-6.86,1,1,0,0,1,.56-.88ZM637,364.06h0l.29,1.31-1.31.29-.29-1.31,1.31-.29Z" transform="translate(-554 -323)"/><path class="cls-1" d="M652.74,428.23c.09-.46.29-1.31.6-2.54.16-.62.39-1.64.7-3.07l1-4.6q.55-2.46,1-4.61c.31-1.43.55-2.45.7-3.07-.08-.37-.23-1.16-.45-2.38s-.37-2-.45-2.38c-.12-.56-.34-1.43-.66-2.63s-.48-1.84-.5-1.93a7.57,7.57,0,0,0-.57-1.26,7.88,7.88,0,0,1-.57-1.26,1.3,1.3,0,0,1-.26-.53l-.09-.41,3.89-.86a1.76,1.76,0,0,0-.11-1.14,3.18,3.18,0,0,0-.5-.91c-.29-.42-.5-.72-.63-.88q-.83-1.13-2.89-3.81t-4.34-5.75q-2.29-3.07-4.41-5.74t-3-3.79a3,3,0,0,0-.17-.47,3,3,0,0,1-.18-.47,3.53,3.53,0,0,1,0-2,1.93,1.93,0,0,1,1.53-1,4.35,4.35,0,0,1,2.48,0,5.83,5.83,0,0,1,2.16,1.83q.43.63,1.55,2.06c.75.95,1.53,2,2.35,3l2.37,3.12q1.13,1.5,1.54,2a8.78,8.78,0,0,0,2.41,2,4.54,4.54,0,0,0,3.19.24,4.72,4.72,0,0,0,2.06-.89,5,5,0,0,0,1.07-2.72l2.63-13.12a4.66,4.66,0,0,1,1.17-2.59,5.06,5.06,0,0,1,2.13-.91,4.47,4.47,0,0,1,2,0,1.69,1.69,0,0,1,1.28,1.47,6.16,6.16,0,0,1,0,1,2.52,2.52,0,0,1-.25,1.15l-5.29,22.78a6.54,6.54,0,0,0-.14,2.66c.12.55.31,1.39.55,2.5l.59,2.65a6.51,6.51,0,0,0,1.22,2.21l15.56,20.2a6.19,6.19,0,0,0,.21.61,5.42,5.42,0,0,1,.24.75,4.1,4.1,0,0,1,0,1.9,1.72,1.72,0,0,1-1.48,1.2,2.94,2.94,0,0,1-2-.21,19.39,19.39,0,0,1-1.75-1c-.4-.49-1.05-1.34-2-2.56s-1.86-2.48-2.88-3.81-2-2.57-2.94-3.72-1.6-2-2-2.47a5,5,0,0,0-2-1.75,4.28,4.28,0,0,0-2.48,0,12.19,12.19,0,0,0-2,.74q-1.33.59-1.08,1.7l.2.25a5.51,5.51,0,0,0,.54,1.12,5.47,5.47,0,0,1,.54,1.12l-2.64.59-2.68,12.85a5,5,0,0,1-1.09,2,3.61,3.61,0,0,1-1.94,1.45,2.14,2.14,0,0,1-2.89-1.84,5.37,5.37,0,0,1-.17-2.08Z" transform="translate(-554 -323)"/><path class="cls-1" d="M666.87,330.83a3.39,3.39,0,0,1,2.15-1.69,3.22,3.22,0,0,1,2.6.63,3.9,3.9,0,0,1,1.64,2.41q.91,4.07-2.49,4.82t-4.42-3.29a3.81,3.81,0,0,1,.53-2.89ZM677,356.23h0c1,.35,1.6.83,1.74,1.46l12.4,55.86q.18.82-1,2a2.76,2.76,0,0,1-4,.89q-1.54-.58-1.72-1.4l-12.4-55.86a2.3,2.3,0,0,1,1-2.07,4.78,4.78,0,0,1,1.87-1.27,4.73,4.73,0,0,1,2.11.38Zm1.89-3.39h0l.9-1.48,1.32,1,11.26,50.71-.76,1.59-1.47-1.09-11.25-50.71Zm-4.68-27.9h0c0,.18,0,.29-.17.32s-.23.05-.29-.22,0-.42.14-.46a.44.44,0,0,1,.32.35Z" transform="translate(-554 -323)"/><path class="cls-1" d="M691,368c.13-.3,0-.61-.45-.92a13.53,13.53,0,0,0-1.56-1,13.26,13.26,0,0,1-1.74-1.12,2.46,2.46,0,0,1-1-1.42,2.54,2.54,0,0,1,.19-1.82,8,8,0,0,1,1-1.45,13.9,13.9,0,0,0,1.08-1.4,1.87,1.87,0,0,0,.32-1.5l-3-13.53a2.13,2.13,0,0,1,.76-2.19,4.39,4.39,0,0,1,1.61-1,4.11,4.11,0,0,1,1.94.24,2.14,2.14,0,0,1,1.57,1.68l3,13.53a1.64,1.64,0,0,0,1.09,1.33,13.79,13.79,0,0,0,1.85.48,6.76,6.76,0,0,1,1.89.67,2.5,2.5,0,0,1,1.19,1.79,2,2,0,0,1-.32,1.91,13.83,13.83,0,0,1-1.38,1.19,13,13,0,0,0-1.38,1.19,2,2,0,0,0-.32,1.91l8.7,39.17a2.63,2.63,0,0,0,1.25,1.85,22,22,0,0,0,2,1,16.72,16.72,0,0,1,2,1.05,3,3,0,0,1,1.3,2,4.33,4.33,0,0,1-.15,2.7,2.24,2.24,0,0,1-1.63,1.39,5.4,5.4,0,0,1-3.7-.75,28,28,0,0,1-3.62-2.27l1,4.43c-.2-.32-.6-.91-1.19-1.79s-1-1.42-1.16-1.65-.57-.78-1.16-1.65l-8.55-38.53c-.45-.53-.76-.87-.92-1L689.8,371l1.22-3Zm17.12,52.52h0c-.13,0-.21,0-.25-.22s-.06-.26.14-.3.27,0,.25.22,0,.28-.13.3Zm1,.46h0c-.06,0-.15-.06-.25-.22s-.06-.26.14-.3.4,0,.37.19-.12.3-.26.33Z" transform="translate(-554 -323)"/><path class="cls-1" d="M780.8,408.74c0,.09,0,.17,0,.27l-.25-.27Z" transform="translate(-554 -323)"/><path class="cls-1" d="M769.67,407.06c-4.3-.35-2.87-6.4-5.5-9.21,3.43-2.8,7.24,4,3.15,7.06a15.49,15.49,0,0,1,2.34,2.15Z" transform="translate(-554 -323)"/><path class="cls-1" d="M776.42,398.94c-3.57.82-6.16-9-5.39-13.12,3.74,4.4,2.81,10.57,5.39,13.12Z" transform="translate(-554 -323)"/><path class="cls-1" d="M772.22,398c-7,5.1-20.62,4.17-30.18,6.92,7.09-4.69,20.58-4.53,30.18-6.92Z" transform="translate(-554 -323)"/><path class="cls-1" d="M748.73,414.67a14.49,14.49,0,0,0-.61-3.54c.35.56,1.07,2.89.61,3.54Z" transform="translate(-554 -323)"/><path class="cls-1" d="M770.9,384.46c-4.39,1.64-2.36-8.71-6.61-11.6,4.48-1.66,5,8.41,6.61,11.6Z" transform="translate(-554 -323)"/><path class="cls-1" d="M764.25,386.6c-2.7,2.88-5.89.62-8.61,3.06.54-3,7.32-2.69,8.61-3.06Z" transform="translate(-554 -323)"/><path class="cls-1" d="M739.68,401.8c1.33,2.36.08,5,1.4,7.39-9,2.88-14.4-.42-21.83,1.14-.6,1.27,1.26,1.13,2.1.45-1.67,2.67-11.78,5.74-14.44-.4,1.54-.58,3.06-1.5,4.81.13-.64.5-1.35.16-2,.91a4.47,4.47,0,0,1,2.84,1c0-2.51.84-.91,2.45-3-2.53-2.52-4.42,1.5-7-1.94,4.64-1.69,9.58-.18,14-3.68.82,1.05-.91,2.4-1.7,3.63,4.22.43,6.33-6.19,8.75-1.7.32-3.51,4.76-4,5.43-.62.77-3.78,2.58-2,5.16-3.34Z" transform="translate(-554 -323)"/><path class="cls-1" d="M740.89,395.84c-4.26,3.23-14.68,4.13-21.57,3.86,8.55-1.21,16.3-3.71,21.57-3.86Z" transform="translate(-554 -323)"/><path class="cls-1" d="M715.23,418.36c0,.15-.07.3-.09.43a10.74,10.74,0,0,0-1.19-.23l1.28-.2Z" transform="translate(-554 -323)"/><path class="cls-1" d="M746,374.57c1.29-.24,2.62-.48,4-.75-1.27.87-2.62.75-4,.75Z" transform="translate(-554 -323)"/><path class="cls-1" d="M746,374.57l-2.7.46a5.73,5.73,0,0,1,2.7-.46Z" transform="translate(-554 -323)"/><path class="cls-1" d="M719.07,401.43c0,2.95-6.09,2.9-8.75,1.7,2.83-1.41,5.92-.29,8.75-1.7Z" transform="translate(-554 -323)"/><path class="cls-1" d="M709.52,386.45c1.76-4.36,13.09-4.76,15.53-2.48-3.79-.38-10.14-.16-15.53,2.48Z" transform="translate(-554 -323)"/><path class="cls-1" d="M705.9,407.07c.53,2.48-2.72,5.55-5.24,9.53-.61.16-4.52-1.8-2.71.31-1.2.21-5.89-.56-5.08-2.85-4,1.18-7.74,5-11.81,5.48-2.19-2.13,1.75-5.21,3.67-4.54-2.58-6.44-9.51,0-9.84,4.57.55-5.94-3.59,6.07-8.14.94,2.12-.05,2.38-4.8,5.91-2.74-.92-5.17-5.67-.32-9.89-3,3.81-.85,7.7-.83,11.46-2,.77.82-.49,1.88-1.09,2.87,4.91-4.39,10-4.09,16.63-5.35.48.61.57,1,.42,1.2l-.75.42c-.79.23-1.89.4-2.11,1.41a17.33,17.33,0,0,1,2.11-1.41,1.24,1.24,0,0,0,.75-.42c5.13-2.62,10.54-2.39,15.72-4.44Z" transform="translate(-554 -323)"/><path class="cls-1" d="M577.41,439.74c14.2-3.16,37.15-6.27,56.7-9.28s34.22-7.18,53.85-10.33c7.71-1.23,20.3-2.4,26-1.57-46.87,7.18-93.67,15.1-140.34,24.37.78.83,2.22,1.58,1.62,2.56l2.18-5.75Z" transform="translate(-554 -323)"/><path class="cls-1" d="M690.18,411.5a1.24,1.24,0,0,1-.75.42l.75-.42Z" transform="translate(-554 -323)"/><path class="cls-1" d="M689.42,411.92a17.33,17.33,0,0,0-2.11,1.41c.22-1,1.32-1.18,2.11-1.41Z" transform="translate(-554 -323)"/><path class="cls-1" d="M656.47,413.45a377.08,377.08,0,0,1,53.24-9.57c-22.25,6.26-45.07,6.63-67.28,13.25,1.68-4.08,9.58-4.77,14-3.68Z" transform="translate(-554 -323)"/><path class="cls-1" d="M666.48,417.79c-1.63,4.17-9.1,3.16-14.39,7.16.41-4.19.66-3.37-2.62-5.88,1.46-1.38,3.21.09,4.81.13,1.36-1.83-2-2.13-2.76-1.19,1.18-1.63,10.19-4.64,11.5-.51-1.36.06-2.49,2.61-4.07.47a4.61,4.61,0,0,0,2.58-1.67c-2-1.45-3.52,1.34-5.16,3.34,2,1.29,7.21-.39,6.65-2.14,1-.8,2.1.43,1.49,1.2.74.56,1.33-.45,2-.92Z" transform="translate(-554 -323)"/><path class="cls-1" d="M663,417.51c.56,1.76-4.65,3.43-6.65,2.14,1.64-2,3.2-4.79,5.16-3.34A4.61,4.61,0,0,1,659,418c1.58,2.14,2.71-.41,4.07-.47Z" transform="translate(-554 -323)"/><path class="cls-1" d="M684.14,380.72c.46,2.46,1,.69,3,2.41-1.05-.61-4.92,1.51-2,.91.29,1.14-5.14,3.12-7.39,1.54.83-.78.93-1.48.48-2.12,1.91-1.51,4.18.72,5.9-2.74Z" transform="translate(-554 -323)"/><path class="cls-1" d="M651.52,418a.76.76,0,0,0-.09.14.45.45,0,0,1,.09-.14Z" transform="translate(-554 -323)"/><path class="cls-1" d="M665.55,387c3.74-1.7,11.27-6.81,11.6-.65-11,.51-16.82,5.16-25.77,3-1.12,2.64-2.63,1.12-3.81,3.19-1.41-1-.82-2.19-2.36-3.16,1.59,5.7-6.81,2.43-9.84,4.57,5.56-8.82,21.94-4.6,28-8.72,1.23-.86.71,1.06,2.23,1.8Z" transform="translate(-554 -323)"/><path class="cls-1" d="M711.05,382.43c-33.67,9.38-74,13.36-110.42,21,33.84-9.38,74.13-13.41,110.42-21Z" transform="translate(-554 -323)"/><path class="cls-1" d="M636.12,415.8c2.34,4.09-7,.27-9.23,3.81,0-4.83,6.65-1.81,9.23-3.81Z" transform="translate(-554 -323)"/><path class="cls-1" d="M624,418.56c-17.05,4.09-46.92,9.39-68.77,12q34.23-7.65,68.77-12Z" transform="translate(-554 -323)"/><path class="cls-1" d="M600.76,404.76c-4.69-1.31-9.05,1-13.56,1.56,1.63-2.28,9.13-4.68,13.56-1.56Z" transform="translate(-554 -323)"/><path class="cls-1" d="M559.65,440.41c-1.18,2.19-1.93-4.58-4.33-2.25.25-4.31,2.85.11,5.55.73-1,.31-2,.63-1.22,1.52Z" transform="translate(-554 -323)"/><path class="cls-1" d="M581.16,407.7c.71,3.23-4.43,5.64-6.25,6.22-2.44-5.2,4.36-2.58,6.25-6.22Z" transform="translate(-554 -323)"/><path class="cls-1" d="M573.77,409.24c1.22,1.93-3.14,4.48-4.15,6.66-1.27-2.22,1.23-5.05,4.15-6.66Z" transform="translate(-554 -323)"/><path class="cls-2" d="M727.5,407.73c-.19.09-.32.1-.41,0a4.67,4.67,0,0,0-.87-.51c-.41-.2-.62-.34-.62-.41l-4.19-53a8.34,8.34,0,0,1-1.52-.17,3.41,3.41,0,0,0-1.51-.05l-.83.47-1.27.74q-.66.4-1.26.8l-.83.53a1.65,1.65,0,0,1-1.4-1.51,1.11,1.11,0,0,1,0-.29.82.82,0,0,0,0-.29,11.17,11.17,0,0,1,1.6-1.69q1.29-1.2,2.64-2.52t2.41-2.45c.71-.75,1.06-1.2,1-1.36a2.47,2.47,0,0,0-1.74-2.23,6.59,6.59,0,0,0-2.87-.53,11.72,11.72,0,0,1,2.13-2.31,5,5,0,0,1,2.79-1.43,1.64,1.64,0,0,1,1.37.53,3.94,3.94,0,0,1,.87,1.44,14.86,14.86,0,0,1,.49,1.7,10.74,10.74,0,0,1,.21,1.2,4.66,4.66,0,0,1,1.26-.21,9.65,9.65,0,0,1,2.1.06,6.66,6.66,0,0,1,1.9.54,1.5,1.5,0,0,1,.92,1.32L735.52,416c0,.46-.37,1-1.21,1.54a4.85,4.85,0,0,1-2,.91,2.8,2.8,0,0,1-.94-.16,8.14,8.14,0,0,1-1.2-.48c-.4-.2-.76-.4-1.09-.61a.94.94,0,0,1-.51-.66l-.71-9a1.39,1.39,0,0,0-.41.15Z" transform="translate(-554 -323)"/><path class="cls-2" d="M802.31,350.45c0-.07,0-.31,0-.69s0-.66,0-.81c0-.46-.09-1-.18-1.49a2.1,2.1,0,0,0-.74-1.33l-1,.54c0-.08,0-.34-.06-.8s-.26-.79-.64-.76l-11.5.91a1.76,1.76,0,0,0-1.85,1.48,20.48,20.48,0,0,0-.29,2.92,15.78,15.78,0,0,1-.35,2.92c-.2.91-.91,1.4-2.14,1.5a2.75,2.75,0,0,1-2.56-1.65q-.05-.69-.3-2.29c-.16-1.07-.33-2.21-.5-3.44s-.32-2.36-.45-3.44-.2-1.84-.24-2.3l-.26-3.33-.26-3.22a7.63,7.63,0,0,1,1.32-1.61,3,3,0,0,1,1.85-.84l17.6-1.39a3.6,3.6,0,0,1,2.31.69,2.52,2.52,0,0,1,1.25,1.92,4.2,4.2,0,0,1-.21,1.75,4.23,4.23,0,0,0-.21,1.75l0,.23c.31.05.78.11,1.4.18a11.23,11.23,0,0,1,1.89.37,8.17,8.17,0,0,1,1.67.68,1.35,1.35,0,0,1,.78,1.09l.47,6-12.69,63.48q-.66,3.41-3.65,3.65a4.18,4.18,0,0,1-1.77-.5c-.8-.36-1.15-.85-1-1.48l12.33-60.67Zm-1.48-13.59h0a5.35,5.35,0,0,0-.46-1.47,4.93,4.93,0,0,0-.85-1.26,1.54,1.54,0,0,0-1.31-.47l-15.87,1.26a1.7,1.7,0,0,0-1.23.56,2.88,2.88,0,0,0-.6,1.2,6,6,0,0,0-.18,1.4c0,.46,0,.85,0,1.16,0,.15,0,.46.07.92a2.42,2.42,0,0,0,.19.91l2.54-1.59L801,338.06c0-.31-.08-.71-.15-1.2Zm-1.2,14.84h0l.09,1.15-9.14,45.51-1.26,3.11,10.3-49.77Zm.9-3.31h0l0,.58a6.37,6.37,0,0,0-.22.83,5.92,5.92,0,0,1-.22.83l0-.58,0-.58a2.67,2.67,0,0,1,.16-.82c.12-.39.22-.67.28-.83l0,.57Z" transform="translate(-554 -323)"/><path class="cls-3" d="M613.78,412.25a7.87,7.87,0,0,1,0,2.25c.1.44,0,.69-.38.77-.61.14-1,.11-1.18-.08a1.69,1.69,0,0,1-.38-.81,1.36,1.36,0,0,1,.11-1.05,1.36,1.36,0,0,0,.11-1.05,19.28,19.28,0,0,0-1.48-4.18,41.07,41.07,0,0,1-1.77-4.26c-.05-.26-.17-.67-.34-1.23s-.37-1.16-.6-1.79-.43-1.23-.6-1.78-.28-1-.34-1.23a1,1,0,0,1-.88-.55,6.25,6.25,0,0,1-.26-.84,6.65,6.65,0,0,1-.15-1c0-.31.17-.56.59-.75l-1-7a6.86,6.86,0,0,1-1.39-.38,1.35,1.35,0,0,1-.85-1c-.18-.78,0-1.21.47-1.27s.8-.42.92-1.09a2.26,2.26,0,0,0,.18-.73c.05-.38.1-.78.14-1.2s.09-.84.13-1.26a3.68,3.68,0,0,0,0-.77q.07-.29.44-1.4a7.79,7.79,0,0,1,.58-1.43l2.61,11.77a49.48,49.48,0,0,1,0-6.73,16.81,16.81,0,0,1,1.07-4.76,20,20,0,0,1,2.35-4.23q1.52-2.12,4-5.14l-5,1.1a2.35,2.35,0,0,1,1.37-2.16,9.32,9.32,0,0,1,2.45-1l.66-.15a93.6,93.6,0,0,1,10.4.84,20.77,20.77,0,0,1,7.8,2.66,16,16,0,0,1,5.55,5.83,37,37,0,0,1,3.68,10.37c.09.44.25,1.25.47,2.43s.37,2,.44,2.3a3.08,3.08,0,0,1,0,1.11c-.08.47-.18,1-.3,1.44a5.49,5.49,0,0,1-.52,1.35q-.34.62-.73.71l-20,4.44a11.72,11.72,0,0,0-1,1.18c-.2.32-.42.69-.65,1.1a1.64,1.64,0,0,0-.23,1.14L623,414.53a25.35,25.35,0,0,1,1.86,2.19c.13.15.28.32.46.51s.31.27.4.25l5.62-1.25-1.61,2,3.14-.7a8.13,8.13,0,0,0,3.92-1.83,16.21,16.21,0,0,0,2.18-2.54l1.65-2.43a4.41,4.41,0,0,1,4.62-1.43,2,2,0,0,1,1.26,1.64,5,5,0,0,1-.18,2.58,14.9,14.9,0,0,1-1.18,2.72c-.49.88-1,1.73-1.56,2.53a14.89,14.89,0,0,1-1.5,1.91,12.05,12.05,0,0,1-3.79,3,20.51,20.51,0,0,1-4.52,1.55,14.26,14.26,0,0,1-7.23-.11,15.39,15.39,0,0,1-5.86-3.21,20.75,20.75,0,0,1-4.35-5.4,31.92,31.92,0,0,1-2.81-6.49q.12.53.28,2.19Zm-.31,6.32h0a3.24,3.24,0,0,1,1.12-.52l.52,2.35a3.19,3.19,0,0,1-1.23,0,1,1,0,0,1-.41-1.83Zm2.28,4.71h0l-.38.77c-.56-.06-.93-.48-1.11-1.26a1.38,1.38,0,0,1,1.48.5Zm-1.51-6.8h0c-.08.48-.42.78-1,.91l-.14-.65,1.18-.26Zm6.13-41.9h0a10.25,10.25,0,0,0-2.64,1.41,7,7,0,0,0-1.87,2.06,3.67,3.67,0,0,0-.35,2.75l2.21,9.94a13.28,13.28,0,0,0,1.63-1.94q1.16-1.56,1.47-2c.29-.34.83-1,1.61-2s1.65-2.06,2.58-3.18l2.55-3q1.14-1.35,1.53-1.44a7,7,0,0,1-.11-.8,7.34,7.34,0,0,0-.11-.8,3.75,3.75,0,0,0-.74-1.76,2.94,2.94,0,0,0-1.83-.55,6.71,6.71,0,0,0-1.73.24l-1.7.38a20.4,20.4,0,0,0-2.51.76Zm-2.53,9.27h0a.24.24,0,0,1-.2.32q-.23.19-.32-.2c-.06-.26,0-.37.21-.32a.23.23,0,0,1,.32.2ZM621,394h0c.1-.39.22-.85.37-1.38a1.2,1.2,0,0,1,.89-1l.26-.06a6.31,6.31,0,0,1,.55.91,5,5,0,0,1,.41.94l4.57-1a1.67,1.67,0,0,1,.28-1.5,6.24,6.24,0,0,1,1.2-1.09,7.81,7.81,0,0,0,1.26-1.1,2.09,2.09,0,0,0,.45-1.68q-.06-.26-.18-1.13c-.08-.57-.17-1.19-.27-1.86s-.21-1.26-.33-1.78l-.26-1.18a4.71,4.71,0,0,0-1.19.81q-.93.75-1.95,1.74l-1.92,1.87a14.14,14.14,0,0,0-2.05,2.51l-1.32,2.07-1.32,2.08a9.59,9.59,0,0,0-.79,1.41L621,394Zm-1.8-8.11h0l.12.53-.52.11-.11-.52.52-.12Zm14.24,2.06h0c-.56.58-1.13,1.11-1.7,1.61l-1.49,1.29a1.2,1.2,0,0,0-.49,1.2l1.57-.35a4.88,4.88,0,0,0,2.81-1.58,3.5,3.5,0,0,0,.53-3.14,5.29,5.29,0,0,0-.2-.58,6,6,0,0,1-.2-.57,2.94,2.94,0,0,1-.83,2.11Zm-1.12-10h0a7.48,7.48,0,0,0,.44,2q.17.44.27.28a2.11,2.11,0,0,0,0-1.36c-.16-.7-.34-1.12-.55-1.25s-.15.06-.12.37Zm-2.25-12.6h0c.09-.2.18-.31.27-.33l.26-.06.39-.09c.09,0,.21,0,.38.19a.82.82,0,0,1,.28.35.53.53,0,0,1-.12.37l-.26.4-.39.09-.26.05-.8-.51a3.39,3.39,0,0,0,.24-.46ZM630,348.09h0a5.93,5.93,0,0,1,.84-.26,3,3,0,0,1,1.09,0,.82.82,0,0,1,.71.73l.06.26q-.18,1.69-.32,3.5a31.33,31.33,0,0,0-.11,3.18,7.35,7.35,0,0,0,.23,2.55,8.13,8.13,0,0,1,.33,2.12,2.5,2.5,0,0,1-.53,1.63,3.72,3.72,0,0,1-2.11,1,21.29,21.29,0,0,1-.45-7,23.54,23.54,0,0,0-.29-6.86,1,1,0,0,1,.56-.88Zm5.73,14.38h0l.29,1.31-1.31.29-.29-1.31,1.31-.29Z" transform="translate(-554 -323)"/><path class="cls-3" d="M651.47,426.64c.09-.46.29-1.31.6-2.54.16-.62.39-1.64.7-3.07s.65-3,1-4.6.71-3.17,1-4.61.55-2.45.7-3.07c-.08-.37-.23-1.16-.45-2.38s-.37-2-.46-2.38c-.12-.56-.34-1.43-.66-2.63s-.48-1.84-.5-1.93a7.61,7.61,0,0,0-.57-1.26,7.84,7.84,0,0,1-.57-1.26,1.29,1.29,0,0,1-.26-.53l-.09-.41,3.89-.86a1.75,1.75,0,0,0-.11-1.14,3.18,3.18,0,0,0-.49-.91c-.29-.42-.5-.72-.63-.88q-.84-1.13-2.89-3.81t-4.34-5.75q-2.29-3.07-4.41-5.74t-3-3.79a3,3,0,0,0-.17-.47,3,3,0,0,1-.18-.47,3.53,3.53,0,0,1,0-2,1.93,1.93,0,0,1,1.53-1,4.35,4.35,0,0,1,2.48,0,5.83,5.83,0,0,1,2.16,1.83q.43.63,1.55,2.07c.75.95,1.53,2,2.35,3l2.37,3.12q1.13,1.5,1.54,2a8.79,8.79,0,0,0,2.41,2,4.54,4.54,0,0,0,3.19.24,4.72,4.72,0,0,0,2.06-.89,5,5,0,0,0,1.07-2.72L665,366.76a4.66,4.66,0,0,1,1.17-2.59,5.07,5.07,0,0,1,2.13-.91,4.47,4.47,0,0,1,2,0,1.69,1.69,0,0,1,1.28,1.47,6.14,6.14,0,0,1,0,1,2.52,2.52,0,0,1-.25,1.15L666,389.61a6.54,6.54,0,0,0-.14,2.66c.12.56.31,1.39.55,2.5l.59,2.65a6.5,6.5,0,0,0,1.22,2.21l15.56,20.2a6.24,6.24,0,0,0,.21.61,5.38,5.38,0,0,1,.24.75,4.1,4.1,0,0,1,0,1.9,1.72,1.72,0,0,1-1.48,1.2,2.94,2.94,0,0,1-2-.21,19.33,19.33,0,0,1-1.75-1c-.4-.49-1.05-1.34-2-2.56s-1.86-2.48-2.88-3.81-2-2.57-2.94-3.72-1.6-2-2-2.47a5,5,0,0,0-2-1.75,4.28,4.28,0,0,0-2.48,0,12.17,12.17,0,0,0-2,.74q-1.33.59-1.08,1.7l.2.25a5.51,5.51,0,0,0,.54,1.12,5.5,5.5,0,0,1,.54,1.12l-2.64.59-2.68,12.85a5,5,0,0,1-1.09,2,3.61,3.61,0,0,1-1.94,1.45,2.14,2.14,0,0,1-2.89-1.84,5.37,5.37,0,0,1-.17-2.08Z" transform="translate(-554 -323)"/><path class="cls-3" d="M665.6,329.23a3.39,3.39,0,0,1,2.15-1.69,3.22,3.22,0,0,1,2.6.63,3.9,3.9,0,0,1,1.64,2.41q.91,4.07-2.49,4.82t-4.42-3.29a3.81,3.81,0,0,1,.53-2.89Zm10.15,25.4h0c1,.35,1.6.83,1.74,1.46L689.89,412q.18.82-1,2a2.76,2.76,0,0,1-4,.88q-1.54-.58-1.72-1.4l-12.4-55.86a2.3,2.3,0,0,1,1-2.07,4.77,4.77,0,0,1,1.87-1.27,4.73,4.73,0,0,1,2.11.38Zm1.89-3.39h0l.9-1.48,1.32,1,11.26,50.71-.76,1.59L688.89,402l-11.25-50.71Zm-4.68-27.9h0c0,.18,0,.29-.17.32s-.23.05-.29-.22,0-.42.14-.46a.44.44,0,0,1,.32.35Z" transform="translate(-554 -323)"/><path class="cls-3" d="M689.74,366.37c.13-.3,0-.61-.45-.92a13.54,13.54,0,0,0-1.56-1,13.28,13.28,0,0,1-1.74-1.12,2.46,2.46,0,0,1-1-1.42,2.54,2.54,0,0,1,.19-1.82,7.93,7.93,0,0,1,1-1.45,14,14,0,0,0,1.08-1.41,1.87,1.87,0,0,0,.32-1.5l-3-13.53a2.13,2.13,0,0,1,.76-2.19,4.39,4.39,0,0,1,1.61-1,4.12,4.12,0,0,1,1.94.24,2.15,2.15,0,0,1,1.57,1.68l3,13.53a1.64,1.64,0,0,0,1.09,1.33,13.92,13.92,0,0,0,1.85.48,6.76,6.76,0,0,1,1.89.67,2.49,2.49,0,0,1,1.19,1.79,2,2,0,0,1-.32,1.91,13.81,13.81,0,0,1-1.38,1.19,12.92,12.92,0,0,0-1.38,1.19,2,2,0,0,0-.32,1.91l8.7,39.17A2.63,2.63,0,0,0,706,406a22,22,0,0,0,2,1,16.7,16.7,0,0,1,2,1.05,3,3,0,0,1,1.3,2,4.33,4.33,0,0,1-.15,2.7,2.24,2.24,0,0,1-1.63,1.39,5.4,5.4,0,0,1-3.7-.75,28,28,0,0,1-3.62-2.27l1,4.43c-.2-.32-.6-.91-1.19-1.79s-1-1.42-1.16-1.65-.57-.78-1.16-1.65l-8.55-38.53c-.45-.53-.76-.87-.92-1l-1.73-1.52,1.22-3Zm17.12,52.52h0c-.13,0-.21,0-.25-.22s-.06-.26.13-.3.27,0,.25.22,0,.28-.13.3Zm1,.46h0c-.06,0-.15-.06-.25-.22s-.06-.26.14-.3.4,0,.37.19-.12.3-.26.33Z" transform="translate(-554 -323)"/><path class="cls-3" d="M779.53,407.14c0,.09,0,.17,0,.27l-.25-.27Z" transform="translate(-554 -323)"/><path class="cls-3" d="M768.39,405.46c-4.3-.35-2.87-6.4-5.5-9.21,3.43-2.8,7.24,4,3.15,7.06a15.51,15.51,0,0,1,2.34,2.15Z" transform="translate(-554 -323)"/><path class="cls-3" d="M775.15,397.35c-3.57.82-6.16-9-5.39-13.12,3.74,4.4,2.81,10.57,5.39,13.12Z" transform="translate(-554 -323)"/><path class="cls-3" d="M770.95,396.45c-7,5.1-20.62,4.17-30.18,6.92,7.09-4.69,20.58-4.53,30.18-6.92Z" transform="translate(-554 -323)"/><path class="cls-3" d="M747.46,413.08a14.5,14.5,0,0,0-.61-3.54c.35.56,1.07,2.89.61,3.54Z" transform="translate(-554 -323)"/><path class="cls-3" d="M769.63,382.86c-4.39,1.64-2.36-8.71-6.61-11.6,4.48-1.66,5,8.41,6.61,11.6Z" transform="translate(-554 -323)"/><path class="cls-3" d="M763,385c-2.7,2.88-5.89.62-8.61,3.06.54-3,7.32-2.69,8.61-3.06Z" transform="translate(-554 -323)"/><path class="cls-3" d="M738.4,400.21c1.33,2.36.08,5,1.4,7.39-9,2.88-14.4-.42-21.83,1.14-.6,1.27,1.26,1.13,2.1.45-1.67,2.67-11.78,5.74-14.44-.4,1.54-.58,3.06-1.5,4.81.13-.64.5-1.35.16-2,.91a4.47,4.47,0,0,1,2.84,1c0-2.51.84-.91,2.45-3-2.53-2.52-4.42,1.5-7-1.94,4.64-1.69,9.58-.18,14-3.68.82,1.05-.91,2.4-1.7,3.63,4.22.43,6.33-6.19,8.75-1.7.32-3.51,4.76-4,5.43-.62.77-3.78,2.58-2,5.16-3.34Z" transform="translate(-554 -323)"/><path class="cls-3" d="M739.62,394.24c-4.26,3.23-14.68,4.13-21.57,3.86,8.55-1.21,16.3-3.71,21.57-3.86Z" transform="translate(-554 -323)"/><path class="cls-3" d="M714,416.77c0,.15-.07.3-.09.43a10.73,10.73,0,0,0-1.19-.23l1.28-.2Z" transform="translate(-554 -323)"/><path class="cls-3" d="M744.74,373c1.29-.24,2.62-.48,4-.75-1.27.87-2.62.75-4,.75Z" transform="translate(-554 -323)"/><path class="cls-3" d="M744.74,373l-2.7.46a5.73,5.73,0,0,1,2.7-.46Z" transform="translate(-554 -323)"/><path class="cls-3" d="M717.79,399.83c0,2.95-6.09,2.9-8.75,1.7,2.83-1.41,5.92-.29,8.75-1.7Z" transform="translate(-554 -323)"/><path class="cls-3" d="M708.25,384.86c1.76-4.36,13.09-4.76,15.53-2.48-3.79-.38-10.14-.16-15.53,2.48Z" transform="translate(-554 -323)"/><path class="cls-3" d="M704.62,405.48c.53,2.48-2.72,5.55-5.24,9.53-.61.16-4.52-1.8-2.71.31-1.2.21-5.89-.56-5.08-2.85-4,1.18-7.74,5-11.81,5.48-2.19-2.13,1.75-5.21,3.67-4.54-2.58-6.44-9.51,0-9.84,4.57.55-5.94-3.59,6.07-8.14.94,2.12-.05,2.38-4.8,5.91-2.74-.92-5.17-5.67-.32-9.89-3,3.81-.85,7.7-.83,11.46-2,.77.82-.49,1.88-1.09,2.87,4.91-4.39,10-4.09,16.63-5.35.48.61.57,1,.42,1.2l-.75.42c-.79.23-1.89.4-2.11,1.41a17.41,17.41,0,0,1,2.11-1.41,1.24,1.24,0,0,0,.75-.42c5.13-2.62,10.54-2.39,15.72-4.44Z" transform="translate(-554 -323)"/><path class="cls-3" d="M576.14,438.15c14.2-3.16,37.15-6.27,56.7-9.28s34.22-7.18,53.85-10.33c7.71-1.23,20.3-2.4,26-1.57-46.87,7.18-93.67,15.1-140.34,24.37.78.83,2.22,1.58,1.62,2.56l2.18-5.75Z" transform="translate(-554 -323)"/><path class="cls-3" d="M688.9,409.91a1.24,1.24,0,0,1-.75.42l.75-.42Z" transform="translate(-554 -323)"/><path class="cls-3" d="M688.15,410.33a17.41,17.41,0,0,0-2.11,1.41c.22-1,1.32-1.18,2.11-1.41Z" transform="translate(-554 -323)"/><path class="cls-3" d="M655.19,411.86a377.11,377.11,0,0,1,53.24-9.57c-22.25,6.26-45.07,6.63-67.28,13.25,1.68-4.08,9.58-4.77,14-3.68Z" transform="translate(-554 -323)"/><path class="cls-3" d="M665.21,416.2c-1.63,4.17-9.09,3.16-14.39,7.16.41-4.19.66-3.37-2.62-5.88,1.46-1.38,3.21.09,4.81.13,1.36-1.83-2-2.13-2.76-1.19,1.18-1.63,10.19-4.64,11.5-.51-1.36.06-2.49,2.61-4.07.47a4.61,4.61,0,0,0,2.58-1.67c-2-1.45-3.52,1.35-5.16,3.34,2,1.29,7.21-.39,6.65-2.14,1-.8,2.1.43,1.49,1.2.74.56,1.33-.45,2-.92Z" transform="translate(-554 -323)"/><path class="cls-3" d="M661.75,415.91c.56,1.75-4.65,3.43-6.65,2.14,1.64-2,3.2-4.79,5.16-3.34a4.61,4.61,0,0,1-2.58,1.67c1.58,2.14,2.71-.41,4.07-.47Z" transform="translate(-554 -323)"/><path class="cls-3" d="M682.87,379.13c.46,2.46,1,.69,3,2.41-1.05-.61-4.92,1.51-2,.91.29,1.14-5.14,3.12-7.39,1.54.83-.78.93-1.48.48-2.12,1.91-1.51,4.18.72,5.9-2.74Z" transform="translate(-554 -323)"/><path class="cls-3" d="M650.25,416.42a.76.76,0,0,0-.09.14.44.44,0,0,1,.09-.14Z" transform="translate(-554 -323)"/><path class="cls-3" d="M664.27,385.39c3.74-1.7,11.27-6.81,11.6-.65-11,.51-16.82,5.16-25.77,3-1.12,2.64-2.63,1.12-3.8,3.19-1.41-1-.82-2.19-2.36-3.16,1.59,5.71-6.81,2.43-9.84,4.57,5.56-8.82,21.94-4.6,28-8.72,1.23-.86.71,1.06,2.23,1.8Z" transform="translate(-554 -323)"/><path class="cls-3" d="M709.78,380.84c-33.67,9.38-74,13.36-110.42,21,33.84-9.38,74.13-13.41,110.42-21Z" transform="translate(-554 -323)"/><path class="cls-3" d="M634.84,414.21c2.34,4.09-7,.27-9.23,3.81,0-4.83,6.65-1.81,9.23-3.81Z" transform="translate(-554 -323)"/><path class="cls-3" d="M622.77,417c-17.05,4.09-46.92,9.39-68.77,12q34.23-7.65,68.77-12Z" transform="translate(-554 -323)"/><path class="cls-3" d="M599.49,403.16c-4.69-1.31-9.05,1-13.56,1.56,1.63-2.28,9.13-4.68,13.56-1.56Z" transform="translate(-554 -323)"/><path class="cls-3" d="M558.38,438.82c-1.18,2.19-1.93-4.58-4.33-2.25.25-4.31,2.85.11,5.55.73-1,.31-2,.63-1.22,1.52Z" transform="translate(-554 -323)"/><path class="cls-3" d="M579.89,406.11c.71,3.23-4.43,5.64-6.26,6.22-2.44-5.2,4.36-2.58,6.26-6.22Z" transform="translate(-554 -323)"/><path class="cls-3" d="M572.5,407.65c1.22,1.93-3.14,4.48-4.15,6.66-1.27-2.22,1.23-5.05,4.15-6.66Z" transform="translate(-554 -323)"/><path class="cls-2" d="M734.46,401.24a3.58,3.58,0,0,1,1-.26,6.13,6.13,0,0,1,1.57.11,1.77,1.77,0,0,1,1.28.82,1.7,1.7,0,0,1-.49.33,1.9,1.9,0,0,0-.5.33l-.53.62c-.28.33-.46.5-.53.5-.37.18-.85,0-1.43-.52s-.89-.91-.9-1.15a.72.72,0,0,1,.52-.79Zm46.46,14.7h0a8.21,8.21,0,0,1,1.27-.8,10.14,10.14,0,0,1,1.28-.57.75.75,0,0,0,.58-.8,2.3,2.3,0,0,0-.23-.67c-.14-.3-.29-.44-.44-.43l-3.8.3c-.17-.22-.45-.52-.82-.91s-.78-.77-1.19-1.12a13.26,13.26,0,0,1-1.13-1.07,1.75,1.75,0,0,1-.52-.77.67.67,0,0,1,.58-.74,6.53,6.53,0,0,1,1.08-.2,2.39,2.39,0,0,1,1.59.39,2.21,2.21,0,0,0,1.48.4,5.22,5.22,0,0,0-.3-1.54,1.55,1.55,0,0,0-.64-.76,2.56,2.56,0,0,0-1.12-.32,12.11,12.11,0,0,1-1.77-.32c-.16-.07-.63-.2-1.42-.41s-1.27-.34-1.43-.41l-.23,0-.34,0a18.5,18.5,0,0,1-4.74,7.5,12.75,12.75,0,0,1-8.07,3.47,12.06,12.06,0,0,1-4.8-.6,15.64,15.64,0,0,1-4.41-2.31,16.63,16.63,0,0,1-3.53-3.6,13.92,13.92,0,0,1-2.14-4.46,20.72,20.72,0,0,1-.53-3,5,5,0,0,0-1.33-3L745,413.51a9.76,9.76,0,0,1-2.06-3.36,19.14,19.14,0,0,1-.94-3.86,34.42,34.42,0,0,1-.32-4q0-2-.2-4l-1.27.1.18,2.3a3.06,3.06,0,0,1-1.32-.59,8.78,8.78,0,0,1-1.37-1.22,9.59,9.59,0,0,1-1.1-1.48,3.16,3.16,0,0,1-.51-1.35c0-.61.13-1,.55-1.08a8.36,8.36,0,0,1,1.43-.23,11.58,11.58,0,0,1,1.85,0,3.89,3.89,0,0,1,1.8.9l1.49-4.63.36,4.48.88-.65c0-.08,0-.5,0-1.27s0-1.7,0-2.78,0-1.93-.08-2.54l-.14-1.72L756,345.77a8.11,8.11,0,0,1,1.34-2.83,3.63,3.63,0,0,1,2.74-1.31q2.31-.18,2.51,2.35l.05.69-7.43,26,.07.8a3.55,3.55,0,0,0,2,3q6.68-.3,10.1,1.92a12.27,12.27,0,0,1,4.88,6.1,28.42,28.42,0,0,1,1.64,9.07q.18,5.2.51,10.84c.23,0,.77,0,1.62,0a4.65,4.65,0,0,1,1.64.28,3.4,3.4,0,0,1,1.14.43,3.32,3.32,0,0,0,1.13.43,22,22,0,0,0,3.72.11,14.88,14.88,0,0,1,3.6.24,5.93,5.93,0,0,1,2.83,1.4,5.25,5.25,0,0,1,1.38,3.6,3.85,3.85,0,0,1-1.75-.21,3.55,3.55,0,0,0-1.64-.22,1.38,1.38,0,0,0-1.1.72,2.22,2.22,0,0,0-.35,1.36,14,14,0,0,0,.57,2.85,22.52,22.52,0,0,0,1,2.81l0,.23c0,.16-.26.44-.8.87s-1.18.9-1.91,1.43l-2.13,1.5a7.57,7.57,0,0,1-1.5.87,1.75,1.75,0,0,1-1.17-1.59c-.15-.88-.25-1.62-.29-2.24a1.45,1.45,0,0,1,.52-1.37Zm-37.2-26.25h0c0,.08-.06.16-.21.25s-.23,0-.25-.21,0-.43.2-.36a.35.35,0,0,1,.25.33Zm8.83,16.1h0a3.17,3.17,0,0,0,1,2.18,6,6,0,0,0,2.06,1.22,8.57,8.57,0,0,0,2.46.5,16.53,16.53,0,0,0,2.19,0c.38,0,.88-.09,1.49-.17l1-.14a4,4,0,0,0,1-.25q.62-.22.61-.34l-.53-6.67-1.06-.26c-.47-.12-1-.23-1.53-.34s-1.06-.22-1.53-.34a7.92,7.92,0,0,1-.95-.27c-.08,0-.18-.06-.31-.21a4,4,0,0,0-.31-.32l0-.23c0-.54.13-.84.51-.91a11.46,11.46,0,0,1,1.14-.15,3.09,3.09,0,0,1,2,.48,2.9,2.9,0,0,0,1.89.49l-1-12.19a4.61,4.61,0,0,1,2,2.38,21.94,21.94,0,0,1,1.16,3.61,34.35,34.35,0,0,1,.66,3.88,19.37,19.37,0,0,0,.53,3.08l-1.31-16.56a3.7,3.7,0,0,0-.94-2.36,5.67,5.67,0,0,0-2-1.34,8.9,8.9,0,0,0-2.48-.62,13.52,13.52,0,0,0-2.42,0,11,11,0,0,0-3.81.82,8.14,8.14,0,0,0-2.81,3.06l5.57.37-6,.47,1,12.88a.74.74,0,0,0,.75.75,9.35,9.35,0,0,0,1.51,0,6.21,6.21,0,0,1,1.51.05.82.82,0,0,1,.76.81.71.71,0,0,1-.51.85,5.43,5.43,0,0,1-1,.2c-.62,0-1.1.07-1.44.06a3.72,3.72,0,0,1-1.36-.41l.47,6Zm7,13.31h0l-1.88,1.13a5.11,5.11,0,0,1-2.14.8,4.45,4.45,0,0,1-2.06-.41q-1.13-.49-2.09-.88l8.17-.65Zm-1.34-34.49h0a.2.2,0,0,1-.24-.21c-.09-.15,0-.23.21-.25s.35.05.36.2a.36.36,0,0,1-.33.26Zm2.48.61h0c0,.39-.11.59-.41.61s-.48-.15-.51-.54.11-.59.42-.61.47.16.5.54Zm.51.54h0c0,.38-.07.58-.3.6s-.47-.16-.5-.54.1-.59.41-.61.36.17.39.55Zm.62.53h0c0,.38-.11.59-.42.61s-.36-.16-.39-.55.07-.58.3-.6.48.16.51.54Zm.62.53h0a.41.41,0,0,1-.42.49.41.41,0,0,1-.5-.42c0-.38.1-.59.41-.61s.48.16.51.54Zm4.39,19h0c.07-.16.15-.45.27-.89a3,3,0,0,0,.16-.88c0-.08-.09-.17-.25-.27a.72.72,0,0,0-.36-.15l.17,2.19Z" transform="translate(-554 -323)"/></svg>